<?xml version="1.0" encoding="UTF-8"?>
<svg width="1200" height="400" viewBox="0 0 1200 400" fill="none" xmlns="http://www.w3.org/2000/svg">
  <!-- Background -->
  <rect width="1200" height="400" rx="16" fill="#1d2021"/>
  
  <!-- Main keys area -->
  <rect x="40" y="40" width="1120" height="320" rx="8" fill="#3c3836"/>
  
  <!-- Key rows -->
  <g fill="#504945">
    <!-- Function key row -->
    <rect x="60" y="60" width="50" height="50" rx="4"/>
    <rect x="120" y="60" width="50" height="50" rx="4"/>
    <rect x="180" y="60" width="50" height="50" rx="4"/>
    <rect x="240" y="60" width="50" height="50" rx="4"/>
    <rect x="300" y="60" width="50" height="50" rx="4"/>
    <rect x="360" y="60" width="50" height="50" rx="4"/>
    <rect x="420" y="60" width="50" height="50" rx="4"/>
    <rect x="480" y="60" width="50" height="50" rx="4"/>
    <rect x="540" y="60" width="50" height="50" rx="4"/>
    <rect x="600" y="60" width="50" height="50" rx="4"/>
    <rect x="660" y="60" width="50" height="50" rx="4"/>
    <rect x="720" y="60" width="50" height="50" rx="4"/>
    
    <!-- Number row -->
    <rect x="60" y="120" width="50" height="50" rx="4"/>
    <rect x="120" y="120" width="50" height="50" rx="4"/>
    <rect x="180" y="120" width="50" height="50" rx="4"/>
    <rect x="240" y="120" width="50" height="50" rx="4"/>
    <rect x="300" y="120" width="50" height="50" rx="4"/>
    <rect x="360" y="120" width="50" height="50" rx="4"/>
    <rect x="420" y="120" width="50" height="50" rx="4"/>
    <rect x="480" y="120" width="50" height="50" rx="4"/>
    <rect x="540" y="120" width="50" height="50" rx="4"/>
    <rect x="600" y="120" width="50" height="50" rx="4"/>
    <rect x="660" y="120" width="50" height="50" rx="4"/>
    <rect x="720" y="120" width="50" height="50" rx="4"/>
    
    <!-- Letter rows -->
    <rect x="80" y="180" width="50" height="50" rx="4"/>
    <rect x="140" y="180" width="50" height="50" rx="4"/>
    <rect x="200" y="180" width="50" height="50" rx="4"/>
    <rect x="260" y="180" width="50" height="50" rx="4"/>
    <rect x="320" y="180" width="50" height="50" rx="4"/>
    <rect x="380" y="180" width="50" height="50" rx="4"/>
    <rect x="440" y="180" width="50" height="50" rx="4"/>
    <rect x="500" y="180" width="50" height="50" rx="4"/>
    <rect x="560" y="180" width="50" height="50" rx="4"/>
    <rect x="620" y="180" width="50" height="50" rx="4"/>
    <rect x="680" y="180" width="50" height="50" rx="4"/>
    
    <rect x="100" y="240" width="50" height="50" rx="4"/>
    <rect x="160" y="240" width="50" height="50" rx="4"/>
    <rect x="220" y="240" width="50" height="50" rx="4"/>
    <rect x="280" y="240" width="50" height="50" rx="4"/>
    <rect x="340" y="240" width="50" height="50" rx="4"/>
    <rect x="400" y="240" width="50" height="50" rx="4"/>
    <rect x="460" y="240" width="50" height="50" rx="4"/>
    <rect x="520" y="240" width="50" height="50" rx="4"/>
    <rect x="580" y="240" width="50" height="50" rx="4"/>
    <rect x="640" y="240" width="50" height="50" rx="4"/>
    
    <!-- Spacebar row -->
    <rect x="220" y="300" width="400" height="40" rx="4"/>
  </g>
  
  <!-- Highlights -->
  <rect x="220" y="300" width="400" height="40" rx="4" fill="#fe8019" fill-opacity="0.1"/>
</svg>
