 <svg  version="1.0" xmlns="http://www.w3.org/2000/svg"  width="300.000000pt" height="163.000000pt" viewBox="0 0 300.000000 163.000000"  preserveAspectRatio="xMidYMid meet">  <g transform="translate(0.000000,163.000000) scale(0.100000,-0.100000)" fill="#ffa348" stroke="none"> <path d="M1020 813 l0 -486 278 6 c152 4 368 7 480 7 l202 0 0 480 0 480 -480 0 -480 0 0 -487z m809 265 c-1 -13 -4 -36 -8 -53 -6 -30 -6 -30 -91 -35 l-84 -5 -51 -225 -51 -225 -63 -3 -63 -3 6 38 c4 21 9 46 12 55 4 14 -4 17 -48 20 -39 2 -53 7 -53 18 0 11 14 16 57 18 54 3 58 5 64 30 3 15 7 32 9 39 3 9 -21 13 -88 15 -74 2 -92 6 -92 18 0 12 19 16 97 18 l96 3 17 77 c9 42 19 85 21 95 5 15 -4 17 -81 17 -78 0 -86 2 -81 18 3 9 8 31 12 47 4 17 9 33 11 38 2 4 105 7 229 7 l224 0 -1 -22z m-531 -60 c3 -15 -5 -18 -52 -18 -55 0 -81 14 -55 31 8 5 34 8 59 7 33 -2 46 -7 48 -20z m-109 -111 c16 -20 4 -27 -45 -27 -43 0 -61 11 -49 30 9 15 81 12 94 -3z m250 0 c18 -23 2 -27 -106 -27 -79 0 -103 3 -103 13 0 24 12 27 105 27 65 0 96 -4 104 -13z m-194 -127 c0 -10 -12 -16 -37 -18 -37 -3 -51 12 -31 32 13 13 68 2 68 -14z m613 -147 c19 -17 29 -33 24 -37 -6 -3 -52 34 -104 83 l-93 89 -3 -126 c-1 -71 -7 -131 -13 -137 -7 -7 -10 33 -8 130 2 77 5 145 7 152 3 11 70 -43 190 -154z m-573 27 c0 -18 -72 -27 -87 -12 -19 19 3 33 45 30 29 -2 42 -8 42 -18z"/> </g> </svg> 